<?xml version="1.0" standalone="no"?>
<!DOCTYPE svg PUBLIC "-//W3C//DTD SVG 20010904//EN"
 "http://www.w3.org/TR/2001/REC-SVG-20010904/DTD/svg10.dtd">
<svg version="1.0" xmlns="http://www.w3.org/2000/svg"
 width="300.000000pt" height="300.000000pt" viewBox="0 0 300.000000 300.000000"
 preserveAspectRatio="xMidYMid meet">
<metadata>
Created by potrace 1.11, written by Peter Selinger 2001-2013
</metadata>
<g transform="translate(0.000000,300.000000) scale(0.100000,-0.100000)"
fill="#000000" stroke="none">
<path d="M660 2861 c-77 -21 -143 -54 -176 -86 l-24 -24 0 -1159 c0 -1277 -3
-1210 63 -1308 77 -115 191 -164 379 -164 167 0 264 34 342 120 96 106 106
168 106 657 0 334 2 389 16 419 24 50 68 77 133 82 47 3 61 0 85 -19 55 -43
56 -54 56 -478 0 -483 10 -548 97 -651 74 -89 187 -130 353 -130 186 0 301 50
377 164 63 93 63 94 63 691 0 500 -1 548 -19 616 -52 204 -138 346 -268 441
-106 78 -196 110 -360 129 -157 18 -352 -24 -470 -100 l-60 -39 -6 192 c-5
215 -22 301 -79 409 -107 204 -363 304 -608 238z m1217 -870 c61 -27 126 -93
156 -159 18 -38 22 -65 21 -147 0 -90 -3 -106 -29 -158 -47 -96 -136 -168
-237 -192 -23 -6 -27 -3 -32 22 -12 52 -71 119 -130 148 -140 68 -337 -9 -392
-153 -16 -42 -19 -97 -24 -482 -5 -414 -6 -437 -26 -480 -50 -109 -137 -146
-319 -138 -148 7 -214 42 -259 138 -21 44 -21 54 -24 806 l-3 762 43 17 c117
47 305 42 407 -9 65 -33 135 -113 161 -184 36 -100 50 -111 77 -62 81 145 201
242 352 286 69 20 195 12 258 -15z"/>
</g>
</svg>
